<svg fill="#202020" xmlns="http://www.w3.org/2000/svg"  viewBox="0 0 48 48" width="30px" height="30px"><path  d="M 24 4.0019531 C 22.491875 4.0019531 20.984172 4.1796094 19.451172 4.5371094 C 18.831172 4.6821094 18.369781 5.2029375 18.300781 5.8359375 L 17.982422 8.7382812 C 17.878422 9.6842812 17.324 10.534766 16.5 11.009766 C 15.677 11.486766 14.665969 11.54025 13.792969 11.15625 L 11.123047 9.9824219 C 10.541047 9.7244219 9.8627344 9.8660781 9.4277344 10.330078 C 7.3197344 12.576078 5.7383281 15.298172 4.8613281 18.201172 C 4.6763281 18.810172 4.8981563 19.468703 5.4101562 19.845703 L 7.7753906 21.580078 C 8.5423906 22.144078 9 23.048 9 24 C 9 24.952 8.5414375 25.856922 7.7734375 26.419922 L 5.4082031 28.152344 C 4.8952031 28.529344 4.6763281 29.188828 4.8613281 29.798828 C 5.7393281 32.701828 7.3177812 35.423922 9.4257812 37.669922 C 9.8617812 38.133922 10.543047 38.272625 11.123047 38.015625 L 13.791016 36.84375 C 14.662016 36.46075 15.674047 36.515234 16.498047 36.990234 C 17.322047 37.466234 17.876469 38.315719 17.980469 39.261719 L 18.298828 42.162109 C 18.367828 42.795109 18.829219 43.315938 19.449219 43.460938 C 20.983219 43.818938 22.515 44 24 44 C 25.485 44 27.015828 43.819891 28.548828 43.462891 C 28.906828 43.379891 29.201203 43.160953 29.408203 42.876953 C 28.370203 42.338953 27.444203 41.624437 26.658203 40.773438 C 24.802203 41.075437 23.023109 41.071 21.162109 40.75 L 20.964844 38.935547 C 20.756844 37.041547 19.648 35.343578 18 34.392578 C 16.351 33.439578 14.324984 33.330656 12.583984 34.097656 L 10.917969 34.828125 C 9.6969687 33.356125 8.7284062 31.689828 8.0664062 29.923828 L 9.546875 28.839844 C 11.082875 27.713844 12 25.903 12 24 C 12 22.097 11.083828 20.286156 9.5488281 19.160156 L 8.0683594 18.076172 C 8.7293594 16.309172 9.6989219 14.642875 10.919922 13.171875 L 12.583984 13.902344 C 14.325984 14.668344 16.351 14.558422 18 13.607422 C 19.648 12.656422 20.757844 10.958453 20.964844 9.0644531 L 21.162109 7.25 C 23.083109 6.918 24.916891 6.918 26.837891 7.25 L 27.035156 9.0644531 C 27.243156 10.958453 28.352 12.656422 30 13.607422 C 31.648 14.558422 33.673016 14.668344 35.416016 13.902344 L 37.082031 13.171875 C 38.303031 14.643875 39.271594 16.310172 39.933594 18.076172 L 38.453125 19.160156 C 36.917125 20.286156 36 22.097 36 24 C 36 24.068 36.009719 24.135125 36.011719 24.203125 C 37.257719 24.458125 38.415312 24.948141 39.445312 25.619141 C 39.171312 25.104141 39 24.527 39 24 C 39 23.048 39.458562 22.143078 40.226562 21.580078 L 42.591797 19.847656 C 43.104797 19.470656 43.323672 18.811172 43.138672 18.201172 C 42.260672 15.298172 40.682219 12.576078 38.574219 10.330078 C 38.138219 9.8670781 37.459953 9.727375 36.876953 9.984375 L 34.208984 11.15625 C 33.337984 11.53925 32.325953 11.484766 31.501953 11.009766 C 30.677953 10.534766 30.123531 9.6842812 30.019531 8.7382812 L 29.699219 5.8359375 C 29.630219 5.2029375 29.168828 4.6821094 28.548828 4.5371094 C 27.016328 4.1796094 25.508125 4.0019531 24 4.0019531 z M 24 16 C 19.589 16 16 19.589 16 24 C 16 28.411 19.589 32 24 32 C 24.068 32 24.133172 31.991234 24.201172 31.990234 C 24.440172 30.818234 24.893906 29.726187 25.503906 28.742188 C 25.026906 28.894188 24.528 29 24 29 C 21.243 29 19 26.757 19 24 C 19 21.243 21.243 19 24 19 C 26.757 19 29 21.243 29 24 C 29 24.528 28.894187 25.027859 28.742188 25.505859 C 29.726187 24.895859 30.818234 24.442125 31.990234 24.203125 C 31.991234 24.134125 32 24.068 32 24 C 32 19.589 28.411 16 24 16 z M 34 26 C 29.589 26 26 29.589 26 34 C 26 38.411 29.589 42 34 42 C 35.665 42 37.210187 41.487281 38.492188 40.613281 L 43.439453 45.560547 C 43.732453 45.854547 44.116 46 44.5 46 C 44.884 46 45.267547 45.853547 45.560547 45.560547 C 46.145547 44.974547 46.145547 44.025453 45.560547 43.439453 L 40.615234 38.492188 C 41.488234 37.210187 42 35.665 42 34 C 42 29.589 38.411 26 34 26 z M 34 29 C 36.757 29 39 31.243 39 34 C 39 36.757 36.757 39 34 39 C 31.243 39 29 36.757 29 34 C 29 31.243 31.243 29 34 29 z"/></svg>